<svg xmlns="http://www.w3.org/2000/svg" aria-hidden="true" style="position:absolute;width:0;height:0;overflow:hidden">
  <defs>
    <symbol id="icon-close" viewBox="0 0 32 32">
      <path stroke-linecap="round" stroke-linejoin="round" stroke-width="2.182" d="M24 8 8 24M8 8l16 16"/>
    </symbol>
    <symbol id="icon-touch" viewBox="0 0 32 32">
      <path d="M13 2c-1.591.002-3.116.635-4.241 1.759S7.001 6.409 7 8h2a4.003 4.003 0 0 1 4-4 4.003 4.003 0 0 1 4 4h2c-.002-1.591-.635-3.116-1.759-4.241S14.591 2.001 13 2z"/>
      <path d="M21 30h-4.44a3.997 3.997 0 0 1-2.708-1.057l-9.2-8.466a1.993 1.993 0 0 1-.431-2.39c.132-.259.32-.486.549-.665a2.076 2.076 0 0 1 2.658.172L11 20.856V7.999a2 2 0 0 1 4 0v7a2 2 0 0 1 4 0v1a2 2 0 0 1 4 0v1a2 2 0 0 1 4 0v7a5.996 5.996 0 0 1-6 6z"/>
    </symbol>
    <symbol id="icon-jackdaw" viewBox="0 0 48 32">
      <path stroke-linecap="round" stroke-linejoin="round" stroke-width="8" d="m6 7 18 18L42 7"/>
    </symbol>
    <symbol id="icon-instagram" viewBox="0 0 33 32">
      <path d="M24.871 5.868a1.856 1.856 0 0 0-1.822 2.221 1.869 1.869 0 0 0 1.46 1.46 1.854 1.854 0 0 0 1.908-.79 1.86 1.86 0 0 0-.231-2.346 1.859 1.859 0 0 0-1.314-.544zm7.124 3.747a11.765 11.765 0 0 0-.712-3.763 7.648 7.648 0 0 0-1.797-2.741 7.275 7.275 0 0 0-2.741-1.781 11.313 11.313 0 0 0-3.763-.728C21.34.509 20.814.509 16.602.509s-4.739 0-6.38.093a11.313 11.313 0 0 0-3.763.728 7.392 7.392 0 0 0-2.741 1.781 7.275 7.275 0 0 0-1.781 2.741 11.318 11.318 0 0 0-.728 3.763c-.093 1.642-.093 2.168-.093 6.38s0 4.739.093 6.38c.027 1.287.273 2.559.728 3.763a7.275 7.275 0 0 0 1.781 2.741 7.4 7.4 0 0 0 2.741 1.781c1.204.455 2.477.701 3.763.728 1.642.093 2.168.093 6.38.093s4.739 0 6.38-.093a11.313 11.313 0 0 0 3.763-.728 7.275 7.275 0 0 0 2.741-1.781 7.514 7.514 0 0 0 1.797-2.741c.442-1.207.682-2.478.712-3.763 0-1.641.093-2.168.093-6.38s0-4.739-.093-6.38zM29.207 22.19a8.657 8.657 0 0 1-.527 2.88 4.735 4.735 0 0 1-1.161 1.781 4.93 4.93 0 0 1-1.781 1.161 8.712 8.712 0 0 1-2.88.527c-1.549.077-2.122.093-6.195.093s-4.646 0-6.195-.093a8.861 8.861 0 0 1-3.004-.465 5.087 5.087 0 0 1-1.704-1.161 4.652 4.652 0 0 1-1.146-1.781 8.568 8.568 0 0 1-.619-2.942c0-1.549-.093-2.122-.093-6.194s0-4.646.093-6.195a8.567 8.567 0 0 1 .542-2.942A4.659 4.659 0 0 1 5.76 5.155a4.877 4.877 0 0 1 1.704-1.239 8.868 8.868 0 0 1 2.942-.527c1.549 0 2.122-.093 6.194-.093s4.646 0 6.195.093a8.657 8.657 0 0 1 2.88.527 4.74 4.74 0 0 1 1.843 1.239 4.723 4.723 0 0 1 1.161 1.704c.344.943.522 1.939.527 2.942.077 1.549.093 2.122.093 6.195s-.016 4.646-.093 6.194zM16.601 8.051a7.946 7.946 0 0 0-7.774 9.504 7.943 7.943 0 0 0 14.397 2.853 7.945 7.945 0 0 0 1.338-4.412 7.94 7.94 0 0 0-2.328-5.627 7.94 7.94 0 0 0-5.632-2.317zm0 13.102a5.154 5.154 0 0 1-5.057-6.163 5.157 5.157 0 1 1 9.821 2.979 5.15 5.15 0 0 1-4.765 3.184z"/>
    </symbol>
    <symbol id="icon-twitter" viewBox="0 0 31 32">
      <path stroke-linecap="round" stroke-linejoin="round" stroke-width="2.56" d="M29.44 4.48a13.934 13.934 0 0 1-4.019 1.958 5.735 5.735 0 0 0-10.061 3.84v1.28A13.65 13.65 0 0 1 3.84 5.76s-5.12 11.52 6.4 16.64a14.898 14.898 0 0 1-8.96 2.56c11.52 6.4 25.6 0 25.6-14.72a5.73 5.73 0 0 0-.102-1.062A9.881 9.881 0 0 0 29.44 4.48z"/>
    </symbol>
    <symbol id="icon-facebook" viewBox="0 0 17 32">
      <path d="M13.441 5.74h2.779V.856a37.303 37.303 0 0 0-4.051-.215c-4.021 0-6.771 2.55-6.771 7.219v4.024H.86v5.468h4.538V31.36h5.44V17.352h4.524l.68-5.468h-5.204V8.397c0-1.613.414-2.657 2.602-2.657z"/>
    </symbol>
    <symbol id="icon-arrow" viewBox="0 0 33 32">
      <path stroke-width=".78" d="M.78 15.501 16.39 31.22m0 0L32 15.501M16.39 31.22V0"/>
    </symbol>
    <symbol id="icon-search" viewBox="0 0 32 32">
      <path stroke-linecap="round" stroke-linejoin="round" stroke-width="2.667" d="M14.667 25.333c5.891 0 10.667-4.776 10.667-10.667S20.558 3.999 14.667 3.999 4 8.775 4 14.666s4.776 10.667 10.667 10.667zM28 28l-5.8-5.8"/>
    </symbol>
  </defs>
</svg>
